<mxfile host="app.diagrams.net" modified="2024-03-23T07:31:34.224Z" agent="Mozilla/5.0 (Windows NT 10.0; Win64; x64) AppleWebKit/537.36 (KHTML, like Gecko) Chrome/120.0.0.0 YaBrowser/24.1.0.0 Safari/537.36" etag="1hF9s9FfYh88h--bA-h9" version="24.0.8" type="google">
  <diagram name="Page-1" id="13e1069c-82ec-6db2-03f1-153e76fe0fe0">
    <mxGraphModel grid="1" page="1" gridSize="10" guides="1" tooltips="1" connect="1" arrows="1" fold="1" pageScale="1" pageWidth="1100" pageHeight="850" background="none" math="0" shadow="0">
      <root>
        <mxCell id="0" />
        <mxCell id="1" parent="0" />
        <mxCell id="7baba1c4bc27f4b0-2" value=":GUI" style="shape=umlLifeline;perimeter=lifelinePerimeter;whiteSpace=wrap;html=1;container=1;collapsible=0;recursiveResize=0;outlineConnect=0;rounded=1;shadow=0;comic=0;labelBackgroundColor=none;strokeWidth=1;fontFamily=Verdana;fontSize=12;align=center;" vertex="1" parent="1">
          <mxGeometry x="240" y="80" width="100" height="1520" as="geometry" />
        </mxCell>
        <mxCell id="wwS38SLD4BhZDNM-s97V-25" value="" style="html=1;points=[];perimeter=orthogonalPerimeter;" vertex="1" parent="7baba1c4bc27f4b0-2">
          <mxGeometry x="45" y="60" width="10" height="1440" as="geometry" />
        </mxCell>
        <mxCell id="g-z1oCNefS3xPDmUXuDe-24" value="" style="endArrow=block;dashed=1;endFill=0;endSize=12;html=1;rounded=0;" edge="1" parent="7baba1c4bc27f4b0-2">
          <mxGeometry width="160" relative="1" as="geometry">
            <mxPoint x="120" y="352.83000000000004" as="sourcePoint" />
            <mxPoint x="50" y="352.83000000000004" as="targetPoint" />
          </mxGeometry>
        </mxCell>
        <mxCell id="wwS38SLD4BhZDNM-s97V-14" value="Заполнение поля &lt;br&gt;с почтой" style="html=1;verticalAlign=bottom;endArrow=block;rounded=0;entryX=-0.2;entryY=0.155;entryDx=0;entryDy=0;entryPerimeter=0;" edge="1" parent="7baba1c4bc27f4b0-2">
          <mxGeometry relative="1" as="geometry">
            <mxPoint x="-85" y="530.0000000000001" as="sourcePoint" />
            <mxPoint x="43" y="530.0000000000001" as="targetPoint" />
          </mxGeometry>
        </mxCell>
        <mxCell id="wwS38SLD4BhZDNM-s97V-33" value="Нажать кнопку&amp;nbsp;&lt;br&gt;&quot;Завершить регистрацию&quot;" style="html=1;verticalAlign=bottom;endArrow=block;rounded=0;entryX=-0.287;entryY=0.361;entryDx=0;entryDy=0;entryPerimeter=0;" edge="1" parent="7baba1c4bc27f4b0-2">
          <mxGeometry x="0.0029" width="80" relative="1" as="geometry">
            <mxPoint x="-82.13" y="640" as="sourcePoint" />
            <mxPoint x="45.000000000000114" y="640" as="targetPoint" />
            <mxPoint as="offset" />
          </mxGeometry>
        </mxCell>
        <mxCell id="wwS38SLD4BhZDNM-s97V-69" value="Отобразить форму&amp;nbsp;&lt;br&gt;&quot;Просмотр своего &lt;br&gt;аккаунта&quot;" style="html=1;verticalAlign=bottom;endArrow=open;dashed=1;endSize=8;rounded=0;exitX=-0.2;exitY=0.854;exitDx=0;exitDy=0;exitPerimeter=0;" edge="1" parent="7baba1c4bc27f4b0-2">
          <mxGeometry x="0.0054" relative="1" as="geometry">
            <mxPoint x="45.000000000000455" y="1467" as="sourcePoint" />
            <mxPoint x="-83" y="1467" as="targetPoint" />
            <mxPoint as="offset" />
          </mxGeometry>
        </mxCell>
        <mxCell id="7baba1c4bc27f4b0-4" value=":API-Gateway" style="shape=umlLifeline;perimeter=lifelinePerimeter;whiteSpace=wrap;html=1;container=1;collapsible=0;recursiveResize=0;outlineConnect=0;rounded=1;shadow=0;comic=0;labelBackgroundColor=none;strokeWidth=1;fontFamily=Verdana;fontSize=12;align=center;" vertex="1" parent="1">
          <mxGeometry x="381" y="80" width="100" height="1520" as="geometry" />
        </mxCell>
        <mxCell id="WZIY-89Z3sl6ZoVQuBjr-1" value="" style="html=1;points=[[0,0,0,0,5],[0,1,0,0,-5],[1,0,0,0,5],[1,1,0,0,-5]];perimeter=orthogonalPerimeter;outlineConnect=0;targetShapes=umlLifeline;portConstraint=eastwest;newEdgeStyle={&quot;curved&quot;:0,&quot;rounded&quot;:0};" vertex="1" parent="7baba1c4bc27f4b0-4">
          <mxGeometry x="45" y="673" width="10" height="130" as="geometry" />
        </mxCell>
        <mxCell id="g-z1oCNefS3xPDmUXuDe-4" value="" style="html=1;points=[];perimeter=orthogonalPerimeter;" vertex="1" parent="7baba1c4bc27f4b0-4">
          <mxGeometry x="51" y="716" width="10" height="40" as="geometry" />
        </mxCell>
        <mxCell id="g-z1oCNefS3xPDmUXuDe-5" value="Валидировать&lt;br&gt;данные запроса" style="edgeStyle=orthogonalEdgeStyle;html=1;align=left;spacingLeft=2;endArrow=block;rounded=0;entryX=1;entryY=0;exitX=1.4;exitY=0.125;exitDx=0;exitDy=0;exitPerimeter=0;" edge="1" parent="7baba1c4bc27f4b0-4" target="g-z1oCNefS3xPDmUXuDe-4">
          <mxGeometry relative="1" as="geometry">
            <mxPoint x="55" y="696" as="sourcePoint" />
            <Array as="points">
              <mxPoint x="75" y="696" />
              <mxPoint x="75" y="716" />
            </Array>
          </mxGeometry>
        </mxCell>
        <mxCell id="7baba1c4bc27f4b0-6" value=":&lt;span style=&quot;font-family: Helvetica;&quot;&gt;Authorization&amp;nbsp;&lt;/span&gt;&lt;br style=&quot;font-family: Helvetica;&quot;&gt;&lt;span style=&quot;font-family: Helvetica;&quot;&gt;manager&lt;/span&gt;" style="shape=umlLifeline;perimeter=lifelinePerimeter;whiteSpace=wrap;html=1;container=1;collapsible=0;recursiveResize=0;outlineConnect=0;rounded=1;shadow=0;comic=0;labelBackgroundColor=none;strokeWidth=1;fontFamily=Verdana;fontSize=12;align=center;" vertex="1" parent="1">
          <mxGeometry x="680" y="80" width="100" height="1520" as="geometry" />
        </mxCell>
        <mxCell id="wwS38SLD4BhZDNM-s97V-44" value="" style="html=1;points=[];perimeter=orthogonalPerimeter;" vertex="1" parent="7baba1c4bc27f4b0-6">
          <mxGeometry x="45" y="911" width="10" height="80" as="geometry" />
        </mxCell>
        <mxCell id="wwS38SLD4BhZDNM-s97V-54" value="" style="html=1;points=[];perimeter=orthogonalPerimeter;" vertex="1" parent="7baba1c4bc27f4b0-6">
          <mxGeometry x="45" y="1095" width="10" height="80" as="geometry" />
        </mxCell>
        <mxCell id="7baba1c4bc27f4b0-7" value=":СУБД" style="shape=umlLifeline;perimeter=lifelinePerimeter;whiteSpace=wrap;html=1;container=1;collapsible=0;recursiveResize=0;outlineConnect=0;rounded=1;shadow=0;comic=0;labelBackgroundColor=none;strokeWidth=1;fontFamily=Verdana;fontSize=12;align=center;" vertex="1" parent="1">
          <mxGeometry x="820" y="80" width="100" height="1520" as="geometry" />
        </mxCell>
        <mxCell id="wwS38SLD4BhZDNM-s97V-50" value="" style="html=1;points=[];perimeter=orthogonalPerimeter;" vertex="1" parent="7baba1c4bc27f4b0-7">
          <mxGeometry x="45" y="926" width="10" height="50" as="geometry" />
        </mxCell>
        <mxCell id="wwS38SLD4BhZDNM-s97V-57" value="" style="html=1;points=[];perimeter=orthogonalPerimeter;" vertex="1" parent="7baba1c4bc27f4b0-7">
          <mxGeometry x="45" y="1105" width="10" height="60" as="geometry" />
        </mxCell>
        <mxCell id="7baba1c4bc27f4b0-11" value="Нажать кнопку &lt;br&gt;&quot;Регистрация&quot;" style="html=1;verticalAlign=bottom;endArrow=block;labelBackgroundColor=none;fontFamily=Verdana;fontSize=12;edgeStyle=elbowEdgeStyle;elbow=vertical;entryX=-0.374;entryY=0.025;entryDx=0;entryDy=0;entryPerimeter=0;" edge="1" parent="1">
          <mxGeometry relative="1" as="geometry">
            <mxPoint x="155" y="348" as="sourcePoint" />
            <mxPoint x="281.25999999999976" y="348.5" as="targetPoint" />
          </mxGeometry>
        </mxCell>
        <mxCell id="wwS38SLD4BhZDNM-s97V-5" value="" style="shape=umlLifeline;participant=umlActor;perimeter=lifelinePerimeter;whiteSpace=wrap;html=1;container=1;collapsible=0;recursiveResize=0;verticalAlign=top;spacingTop=36;outlineConnect=0;" vertex="1" parent="1">
          <mxGeometry x="140" y="80" width="20" height="1520" as="geometry" />
        </mxCell>
        <mxCell id="wwS38SLD4BhZDNM-s97V-6" value="" style="html=1;points=[];perimeter=orthogonalPerimeter;" vertex="1" parent="wwS38SLD4BhZDNM-s97V-5">
          <mxGeometry x="5" y="60" width="10" height="1440" as="geometry" />
        </mxCell>
        <mxCell id="wwS38SLD4BhZDNM-s97V-8" value="Отобразить форму &lt;br&gt;&quot;Регистрация&quot;" style="html=1;verticalAlign=bottom;endArrow=open;dashed=1;endSize=8;rounded=0;exitX=-0.113;exitY=0.058;exitDx=0;exitDy=0;exitPerimeter=0;" edge="1" parent="1">
          <mxGeometry relative="1" as="geometry">
            <mxPoint x="283.8699999999999" y="459.96000000000004" as="sourcePoint" />
            <mxPoint x="155" y="459.96000000000004" as="targetPoint" />
          </mxGeometry>
        </mxCell>
        <mxCell id="wwS38SLD4BhZDNM-s97V-38" value="HTTP запрос API &lt;br&gt;&quot;Зарегистрировать &lt;br&gt;пользователя&quot;" style="html=1;verticalAlign=bottom;endArrow=block;entryX=0;entryY=0;rounded=0;entryDx=0;entryDy=5;entryPerimeter=0;" edge="1" parent="1" target="WZIY-89Z3sl6ZoVQuBjr-1">
          <mxGeometry relative="1" as="geometry">
            <mxPoint x="295" y="758" as="sourcePoint" />
          </mxGeometry>
        </mxCell>
        <mxCell id="wwS38SLD4BhZDNM-s97V-45" value="Проверка на отсутствие &lt;br&gt;почты в БД" style="html=1;verticalAlign=bottom;endArrow=block;entryX=0;entryY=0;rounded=0;" edge="1" parent="1" target="wwS38SLD4BhZDNM-s97V-44">
          <mxGeometry relative="1" as="geometry">
            <mxPoint x="575.9999999999998" y="991" as="sourcePoint" />
          </mxGeometry>
        </mxCell>
        <mxCell id="wwS38SLD4BhZDNM-s97V-46" value="Результат поиска" style="html=1;verticalAlign=bottom;endArrow=open;dashed=1;endSize=8;exitX=0;exitY=0.95;rounded=0;" edge="1" parent="1" source="wwS38SLD4BhZDNM-s97V-44">
          <mxGeometry relative="1" as="geometry">
            <mxPoint x="575.9999999999998" y="1067" as="targetPoint" />
          </mxGeometry>
        </mxCell>
        <mxCell id="wwS38SLD4BhZDNM-s97V-51" value="Запрос к БД" style="html=1;verticalAlign=bottom;endArrow=block;entryX=0;entryY=0;rounded=0;" edge="1" parent="1" source="wwS38SLD4BhZDNM-s97V-44" target="wwS38SLD4BhZDNM-s97V-50">
          <mxGeometry relative="1" as="geometry">
            <mxPoint x="814" y="1201" as="sourcePoint" />
          </mxGeometry>
        </mxCell>
        <mxCell id="wwS38SLD4BhZDNM-s97V-52" value="Результат запроса" style="html=1;verticalAlign=bottom;endArrow=open;dashed=1;endSize=8;exitX=0;exitY=0.95;rounded=0;" edge="1" parent="1" source="wwS38SLD4BhZDNM-s97V-50" target="wwS38SLD4BhZDNM-s97V-44">
          <mxGeometry relative="1" as="geometry">
            <mxPoint x="814" y="1277" as="targetPoint" />
          </mxGeometry>
        </mxCell>
        <mxCell id="wwS38SLD4BhZDNM-s97V-55" value="Сохранить пользователя в БД" style="html=1;verticalAlign=bottom;endArrow=block;entryX=0;entryY=0;rounded=0;" edge="1" parent="1" target="wwS38SLD4BhZDNM-s97V-54">
          <mxGeometry x="0.0038" relative="1" as="geometry">
            <mxPoint x="575.9999999999998" y="1175" as="sourcePoint" />
            <mxPoint as="offset" />
          </mxGeometry>
        </mxCell>
        <mxCell id="wwS38SLD4BhZDNM-s97V-56" value="Результат" style="html=1;verticalAlign=bottom;endArrow=open;dashed=1;endSize=8;exitX=0;exitY=0.95;rounded=0;" edge="1" parent="1" source="wwS38SLD4BhZDNM-s97V-54">
          <mxGeometry relative="1" as="geometry">
            <mxPoint x="575.9999999999998" y="1251" as="targetPoint" />
          </mxGeometry>
        </mxCell>
        <mxCell id="wwS38SLD4BhZDNM-s97V-58" value="Запрос к БД" style="html=1;verticalAlign=bottom;endArrow=block;entryX=0;entryY=0;rounded=0;" edge="1" parent="1" source="wwS38SLD4BhZDNM-s97V-54" target="wwS38SLD4BhZDNM-s97V-57">
          <mxGeometry relative="1" as="geometry">
            <mxPoint x="814" y="1405" as="sourcePoint" />
          </mxGeometry>
        </mxCell>
        <mxCell id="wwS38SLD4BhZDNM-s97V-59" value="Результат запроса" style="html=1;verticalAlign=bottom;endArrow=open;dashed=1;endSize=8;exitX=0;exitY=0.95;rounded=0;" edge="1" parent="1" source="wwS38SLD4BhZDNM-s97V-57" target="wwS38SLD4BhZDNM-s97V-54">
          <mxGeometry relative="1" as="geometry">
            <mxPoint x="814" y="1481" as="targetPoint" />
          </mxGeometry>
        </mxCell>
        <mxCell id="g-z1oCNefS3xPDmUXuDe-1" value=":&lt;span style=&quot;font-family: Helvetica;&quot;&gt;Authorization -Handler&lt;/span&gt;" style="shape=umlLifeline;perimeter=lifelinePerimeter;whiteSpace=wrap;html=1;container=1;collapsible=0;recursiveResize=0;outlineConnect=0;rounded=1;shadow=0;comic=0;labelBackgroundColor=none;strokeWidth=1;fontFamily=Verdana;fontSize=12;align=center;" vertex="1" parent="1">
          <mxGeometry x="521" y="80" width="100" height="1520" as="geometry" />
        </mxCell>
        <mxCell id="wwS38SLD4BhZDNM-s97V-37" value="" style="html=1;points=[];perimeter=orthogonalPerimeter;" vertex="1" parent="g-z1oCNefS3xPDmUXuDe-1">
          <mxGeometry x="45" y="773" width="10" height="607" as="geometry" />
        </mxCell>
        <mxCell id="WZIY-89Z3sl6ZoVQuBjr-6" value="" style="html=1;points=[[0,0,0,0,5],[0,1,0,0,-5],[1,0,0,0,5],[1,1,0,0,-5]];perimeter=orthogonalPerimeter;outlineConnect=0;targetShapes=umlLifeline;portConstraint=eastwest;newEdgeStyle={&quot;curved&quot;:0,&quot;rounded&quot;:0};" vertex="1" parent="g-z1oCNefS3xPDmUXuDe-1">
          <mxGeometry x="50" y="1030.04" width="10" height="40" as="geometry" />
        </mxCell>
        <mxCell id="WZIY-89Z3sl6ZoVQuBjr-7" value="Сгенерировать хэш пароля" style="html=1;align=left;spacingLeft=2;endArrow=block;rounded=0;edgeStyle=orthogonalEdgeStyle;curved=0;rounded=0;" edge="1" parent="g-z1oCNefS3xPDmUXuDe-1" target="WZIY-89Z3sl6ZoVQuBjr-6">
          <mxGeometry relative="1" as="geometry">
            <mxPoint x="55" y="1010.04" as="sourcePoint" />
            <Array as="points">
              <mxPoint x="85" y="1040.04" />
            </Array>
          </mxGeometry>
        </mxCell>
        <mxCell id="WZIY-89Z3sl6ZoVQuBjr-8" value="" style="html=1;points=[[0,0,0,0,5],[0,1,0,0,-5],[1,0,0,0,5],[1,1,0,0,-5]];perimeter=orthogonalPerimeter;outlineConnect=0;targetShapes=umlLifeline;portConstraint=eastwest;newEdgeStyle={&quot;curved&quot;:0,&quot;rounded&quot;:0};" vertex="1" parent="g-z1oCNefS3xPDmUXuDe-1">
          <mxGeometry x="50" y="833" width="10" height="40" as="geometry" />
        </mxCell>
        <mxCell id="WZIY-89Z3sl6ZoVQuBjr-9" value="Валидировать&lt;br style=&quot;border-color: var(--border-color);&quot;&gt;значение поля почты" style="html=1;align=left;spacingLeft=2;endArrow=block;rounded=0;edgeStyle=orthogonalEdgeStyle;curved=0;rounded=0;" edge="1" parent="g-z1oCNefS3xPDmUXuDe-1" target="WZIY-89Z3sl6ZoVQuBjr-8">
          <mxGeometry x="0.0118" relative="1" as="geometry">
            <mxPoint x="55" y="813" as="sourcePoint" />
            <Array as="points">
              <mxPoint x="85" y="843" />
            </Array>
            <mxPoint as="offset" />
          </mxGeometry>
        </mxCell>
        <mxCell id="_mvL38tfOd_yOuMiwRqw-20" value="" style="html=1;points=[[0,0,0,0,5],[0,1,0,0,-5],[1,0,0,0,5],[1,1,0,0,-5]];perimeter=orthogonalPerimeter;outlineConnect=0;targetShapes=umlLifeline;portConstraint=eastwest;newEdgeStyle={&quot;curved&quot;:0,&quot;rounded&quot;:0};" vertex="1" parent="g-z1oCNefS3xPDmUXuDe-1">
          <mxGeometry x="50" y="1215.04" width="10" height="40" as="geometry" />
        </mxCell>
        <mxCell id="_mvL38tfOd_yOuMiwRqw-21" value="Сгенерировать токен авторизации" style="html=1;align=left;spacingLeft=2;endArrow=block;rounded=0;edgeStyle=orthogonalEdgeStyle;curved=0;rounded=0;" edge="1" parent="g-z1oCNefS3xPDmUXuDe-1" target="_mvL38tfOd_yOuMiwRqw-20">
          <mxGeometry relative="1" as="geometry">
            <mxPoint x="55" y="1195.04" as="sourcePoint" />
            <Array as="points">
              <mxPoint x="85" y="1225.04" />
            </Array>
          </mxGeometry>
        </mxCell>
        <mxCell id="g-z1oCNefS3xPDmUXuDe-6" value="Передача запроса&amp;nbsp;&lt;br&gt;SignUp-Handler" style="html=1;verticalAlign=bottom;endArrow=block;entryX=-0.12;entryY=0.026;rounded=0;entryDx=0;entryDy=0;entryPerimeter=0;" edge="1" parent="1" source="WZIY-89Z3sl6ZoVQuBjr-1" target="wwS38SLD4BhZDNM-s97V-37">
          <mxGeometry relative="1" as="geometry">
            <mxPoint x="460" y="873" as="sourcePoint" />
            <mxPoint x="591" y="873" as="targetPoint" />
          </mxGeometry>
        </mxCell>
        <mxCell id="g-z1oCNefS3xPDmUXuDe-7" value="" style="group" vertex="1" connectable="0" parent="1">
          <mxGeometry x="360" y="180" width="242" height="170" as="geometry" />
        </mxCell>
        <mxCell id="g-z1oCNefS3xPDmUXuDe-8" value="" style="rounded=0;whiteSpace=wrap;html=1;" vertex="1" parent="g-z1oCNefS3xPDmUXuDe-7">
          <mxGeometry width="232.70157676348552" height="138.125" as="geometry" />
        </mxCell>
        <mxCell id="g-z1oCNefS3xPDmUXuDe-9" value="Стартотвая страница" style="text;html=1;strokeColor=none;fillColor=none;align=center;verticalAlign=middle;whiteSpace=wrap;rounded=0;" vertex="1" parent="g-z1oCNefS3xPDmUXuDe-7">
          <mxGeometry x="136.00406639004137" y="145.828125" width="90.37344398340251" height="15.9375" as="geometry" />
        </mxCell>
        <mxCell id="g-z1oCNefS3xPDmUXuDe-10" value="Вход в систему" style="rounded=1;whiteSpace=wrap;html=1;perimeterSpacing=0;" vertex="1" parent="g-z1oCNefS3xPDmUXuDe-7">
          <mxGeometry x="125.51867219917014" y="85" width="75.81327800829878" height="26.5625" as="geometry" />
        </mxCell>
        <mxCell id="g-z1oCNefS3xPDmUXuDe-11" value="Регистрация" style="rounded=1;whiteSpace=wrap;html=1;perimeterSpacing=0;" vertex="1" parent="g-z1oCNefS3xPDmUXuDe-7">
          <mxGeometry x="20.082987551867227" y="85" width="75.81327800829878" height="26.5625" as="geometry" />
        </mxCell>
        <mxCell id="WZIY-89Z3sl6ZoVQuBjr-11" value="" style="endArrow=block;dashed=1;endFill=0;endSize=12;html=1;rounded=0;" edge="1" parent="g-z1oCNefS3xPDmUXuDe-7" target="7baba1c4bc27f4b0-2">
          <mxGeometry width="160" relative="1" as="geometry">
            <mxPoint y="80" as="sourcePoint" />
            <mxPoint x="160" y="80" as="targetPoint" />
          </mxGeometry>
        </mxCell>
        <mxCell id="_mvL38tfOd_yOuMiwRqw-1" value="Заполнение поля &lt;br&gt;с паролем" style="html=1;verticalAlign=bottom;endArrow=block;rounded=0;entryX=-0.2;entryY=0.155;entryDx=0;entryDy=0;entryPerimeter=0;" edge="1" parent="1">
          <mxGeometry relative="1" as="geometry">
            <mxPoint x="155" y="660.0000000000001" as="sourcePoint" />
            <mxPoint x="283" y="660.0000000000001" as="targetPoint" />
          </mxGeometry>
        </mxCell>
        <mxCell id="_mvL38tfOd_yOuMiwRqw-3" value="" style="group" connectable="0" vertex="1" parent="1">
          <mxGeometry x="360" y="375" width="260" height="170" as="geometry" />
        </mxCell>
        <mxCell id="_mvL38tfOd_yOuMiwRqw-4" value="Регистрация" style="text;html=1;strokeColor=none;fillColor=none;align=center;verticalAlign=middle;whiteSpace=wrap;rounded=0;" vertex="1" parent="_mvL38tfOd_yOuMiwRqw-3">
          <mxGeometry x="64.42" y="153" width="122.77" height="17" as="geometry" />
        </mxCell>
        <mxCell id="_mvL38tfOd_yOuMiwRqw-5" value="" style="rounded=0;whiteSpace=wrap;html=1;" vertex="1" parent="_mvL38tfOd_yOuMiwRqw-3">
          <mxGeometry width="260" height="147.33333333333331" as="geometry" />
        </mxCell>
        <mxCell id="_mvL38tfOd_yOuMiwRqw-6" value="&lt;font style=&quot;font-size: 10px;&quot;&gt;Вход в систему&lt;/font&gt;" style="rounded=1;whiteSpace=wrap;html=1;" vertex="1" parent="_mvL38tfOd_yOuMiwRqw-3">
          <mxGeometry x="170" y="4.53" width="75.46" height="12.47" as="geometry" />
        </mxCell>
        <mxCell id="_mvL38tfOd_yOuMiwRqw-7" style="edgeStyle=orthogonalEdgeStyle;rounded=0;orthogonalLoop=1;jettySize=auto;html=1;exitX=0.5;exitY=1;exitDx=0;exitDy=0;" edge="1" parent="_mvL38tfOd_yOuMiwRqw-3">
          <mxGeometry relative="1" as="geometry">
            <mxPoint x="119.37634408602152" y="79.33333333333333" as="sourcePoint" />
            <mxPoint x="119.37634408602152" y="79.33333333333333" as="targetPoint" />
          </mxGeometry>
        </mxCell>
        <mxCell id="_mvL38tfOd_yOuMiwRqw-8" value="" style="rounded=0;whiteSpace=wrap;html=1;" vertex="1" parent="_mvL38tfOd_yOuMiwRqw-3">
          <mxGeometry x="36.623655913978496" y="23.8" width="172.7741935483871" height="113.33333333333331" as="geometry" />
        </mxCell>
        <mxCell id="_mvL38tfOd_yOuMiwRqw-9" value="Поля для информации: почта, пароль" style="rounded=0;whiteSpace=wrap;html=1;" vertex="1" parent="_mvL38tfOd_yOuMiwRqw-3">
          <mxGeometry x="61.51" y="40" width="128.6" height="50.67" as="geometry" />
        </mxCell>
        <mxCell id="_mvL38tfOd_yOuMiwRqw-10" value="&lt;font style=&quot;font-size: 10px;&quot;&gt;Завершить регистрацию&lt;/font&gt;" style="rounded=1;whiteSpace=wrap;html=1;" vertex="1" parent="_mvL38tfOd_yOuMiwRqw-3">
          <mxGeometry x="55.91" y="100" width="64.09" height="31.46" as="geometry" />
        </mxCell>
        <mxCell id="wwS38SLD4BhZDNM-s97V-39" value="Результат запроса + токен авторизации" style="html=1;verticalAlign=bottom;endArrow=open;dashed=1;endSize=8;exitX=0;exitY=0.95;rounded=0;" edge="1" parent="1">
          <mxGeometry relative="1" as="geometry">
            <mxPoint x="295" y="1457.9499999999973" as="targetPoint" />
            <mxPoint x="565.9999999999998" y="1457.0000000000002" as="sourcePoint" />
          </mxGeometry>
        </mxCell>
        <mxCell id="_mvL38tfOd_yOuMiwRqw-12" value="" style="group" connectable="0" vertex="1" parent="1">
          <mxGeometry x="360" y="1507" width="260" height="135" as="geometry" />
        </mxCell>
        <mxCell id="_mvL38tfOd_yOuMiwRqw-13" value="Просмотр своего аккаунта" style="text;html=1;strokeColor=none;fillColor=none;align=center;verticalAlign=middle;whiteSpace=wrap;rounded=0;" vertex="1" parent="_mvL38tfOd_yOuMiwRqw-12">
          <mxGeometry x="72.12903225806451" y="121.5" width="100.64516129032258" height="13.5" as="geometry" />
        </mxCell>
        <mxCell id="_mvL38tfOd_yOuMiwRqw-14" value="" style="rounded=0;whiteSpace=wrap;html=1;" vertex="1" parent="_mvL38tfOd_yOuMiwRqw-12">
          <mxGeometry width="260" height="117" as="geometry" />
        </mxCell>
        <mxCell id="_mvL38tfOd_yOuMiwRqw-15" value="&lt;font style=&quot;font-size: 10px;&quot;&gt;Выход из системы&lt;/font&gt;" style="rounded=1;whiteSpace=wrap;html=1;" vertex="1" parent="_mvL38tfOd_yOuMiwRqw-12">
          <mxGeometry x="150" y="3.6" width="106.09" height="11.93" as="geometry" />
        </mxCell>
        <mxCell id="_mvL38tfOd_yOuMiwRqw-16" style="edgeStyle=orthogonalEdgeStyle;rounded=0;orthogonalLoop=1;jettySize=auto;html=1;exitX=0.5;exitY=1;exitDx=0;exitDy=0;" edge="1" parent="_mvL38tfOd_yOuMiwRqw-12">
          <mxGeometry relative="1" as="geometry">
            <mxPoint x="119.37634408602149" y="63" as="sourcePoint" />
            <mxPoint x="119.37634408602149" y="63" as="targetPoint" />
          </mxGeometry>
        </mxCell>
        <mxCell id="_mvL38tfOd_yOuMiwRqw-17" value="" style="rounded=0;whiteSpace=wrap;html=1;" vertex="1" parent="_mvL38tfOd_yOuMiwRqw-12">
          <mxGeometry x="39.69892473118279" y="22.5" width="172.77419354838707" height="90" as="geometry" />
        </mxCell>
        <mxCell id="_mvL38tfOd_yOuMiwRqw-18" value="Основная информация" style="rounded=0;whiteSpace=wrap;html=1;" vertex="1" parent="_mvL38tfOd_yOuMiwRqw-12">
          <mxGeometry x="61.784946236559136" y="45" width="128.6021505376344" height="27" as="geometry" />
        </mxCell>
        <mxCell id="_mvL38tfOd_yOuMiwRqw-19" value="" style="endArrow=block;dashed=1;endFill=0;endSize=12;html=1;rounded=0;" edge="1" parent="1">
          <mxGeometry width="160" relative="1" as="geometry">
            <mxPoint x="360" y="1567" as="sourcePoint" />
            <mxPoint x="290" y="1567" as="targetPoint" />
          </mxGeometry>
        </mxCell>
        <mxCell id="_mvL38tfOd_yOuMiwRqw-22" value="" style="html=1;points=[];perimeter=orthogonalPerimeter;" vertex="1" parent="1">
          <mxGeometry x="725" y="1362" width="10" height="80" as="geometry" />
        </mxCell>
        <mxCell id="_mvL38tfOd_yOuMiwRqw-23" value="" style="html=1;points=[];perimeter=orthogonalPerimeter;" vertex="1" parent="1">
          <mxGeometry x="865" y="1372" width="10" height="60" as="geometry" />
        </mxCell>
        <mxCell id="_mvL38tfOd_yOuMiwRqw-24" value="Сохранить токен авторизации" style="html=1;verticalAlign=bottom;endArrow=block;entryX=0;entryY=0;rounded=0;" edge="1" parent="1" target="_mvL38tfOd_yOuMiwRqw-22">
          <mxGeometry x="0.0038" relative="1" as="geometry">
            <mxPoint x="575.9999999999998" y="1362" as="sourcePoint" />
            <mxPoint as="offset" />
          </mxGeometry>
        </mxCell>
        <mxCell id="_mvL38tfOd_yOuMiwRqw-25" value="Результат" style="html=1;verticalAlign=bottom;endArrow=open;dashed=1;endSize=8;exitX=0;exitY=0.95;rounded=0;" edge="1" parent="1" source="_mvL38tfOd_yOuMiwRqw-22">
          <mxGeometry relative="1" as="geometry">
            <mxPoint x="575.9999999999998" y="1438" as="targetPoint" />
          </mxGeometry>
        </mxCell>
        <mxCell id="_mvL38tfOd_yOuMiwRqw-26" value="Запрос к БД" style="html=1;verticalAlign=bottom;endArrow=block;entryX=0;entryY=0;rounded=0;" edge="1" parent="1" source="_mvL38tfOd_yOuMiwRqw-22" target="_mvL38tfOd_yOuMiwRqw-23">
          <mxGeometry relative="1" as="geometry">
            <mxPoint x="814" y="1592" as="sourcePoint" />
          </mxGeometry>
        </mxCell>
        <mxCell id="_mvL38tfOd_yOuMiwRqw-27" value="Результат запроса" style="html=1;verticalAlign=bottom;endArrow=open;dashed=1;endSize=8;exitX=0;exitY=0.95;rounded=0;" edge="1" parent="1" source="_mvL38tfOd_yOuMiwRqw-23" target="_mvL38tfOd_yOuMiwRqw-22">
          <mxGeometry relative="1" as="geometry">
            <mxPoint x="814" y="1668" as="targetPoint" />
          </mxGeometry>
        </mxCell>
      </root>
    </mxGraphModel>
  </diagram>
</mxfile>
